<?xml version="1.0" encoding="UTF-8"?>
<svg version="1.1" xmlns="http://www.w3.org/2000/svg" width="512" height="512">
<path d="M0 0 C1.55895595 -0.00417581 3.11790886 -0.00965469 4.67685616 -0.01631981 C8.94933096 -0.0307608 13.22161263 -0.02653392 17.49409795 -0.019153 C22.10634368 -0.01442028 26.71854769 -0.02693212 31.33078003 -0.03717041 C40.36220625 -0.05436186 49.39356291 -0.05519768 58.42500125 -0.04995751 C65.76645622 -0.04591512 73.10789064 -0.04736018 80.44934464 -0.05270576 C81.49446004 -0.05345419 82.53957544 -0.05420261 83.616361 -0.05497371 C85.73955742 -0.0565052 87.86275384 -0.05804355 89.98595025 -0.05958868 C109.89467734 -0.07331504 129.80336514 -0.06787513 149.71209134 -0.05640347 C167.92107121 -0.04647155 186.12994947 -0.05941081 204.33891366 -0.08333766 C223.04093103 -0.10772702 241.74290106 -0.11733689 260.44493401 -0.11068493 C270.94267807 -0.10719228 281.44034399 -0.10942784 291.93807602 -0.12693596 C300.87482468 -0.1416559 309.81144017 -0.14229609 318.74818622 -0.12486505 C323.30641387 -0.11635088 327.8644036 -0.11421568 332.42261887 -0.1295166 C336.59876644 -0.14336128 340.7744722 -0.13860349 344.9505942 -0.11927737 C346.45792416 -0.11551636 347.96528948 -0.11844228 349.47258793 -0.12888902 C360.84633201 -0.20208618 370.3455952 1.14710201 378.93069458 9.19236755 C384.84889351 16.31448275 388.13976748 24.90093913 387.96585083 34.15330505 C387.12901716 43.01754321 383.33550695 51.0441772 376.86819458 57.17674255 C367.70125235 64.48868468 358.77629274 64.82442351 347.50982666 64.77536011 C345.95087071 64.77953592 344.3919178 64.78501479 342.8329705 64.79167992 C338.5604957 64.8061209 334.28821403 64.80189402 330.01572871 64.79451311 C325.40348298 64.78978039 320.79127897 64.80229223 316.17904663 64.81253052 C307.14762041 64.82972197 298.11626375 64.83055778 289.08482541 64.82531761 C281.74337044 64.82127523 274.40193602 64.82272029 267.06048203 64.82806587 C265.49280892 64.82918851 265.49280892 64.82918851 263.89346566 64.83033382 C261.77026924 64.83186531 259.64707282 64.83340365 257.52387641 64.83494879 C237.61514932 64.84867515 217.70646152 64.84323524 197.79773532 64.83176357 C179.58875545 64.82183166 161.37987719 64.83477092 143.170913 64.85869776 C124.46889563 64.88308713 105.7669256 64.89269699 87.06489265 64.88604504 C76.56714859 64.88255238 66.06948268 64.88478795 55.57175064 64.90229607 C46.63500198 64.917016 37.69838649 64.9176562 28.76164044 64.90022516 C24.20341279 64.89171099 19.64542306 64.88957578 15.08720779 64.90487671 C10.91106022 64.91872139 6.73535446 64.91396359 2.55923246 64.89463747 C1.0519025 64.89087646 -0.45546282 64.89380239 -1.96276127 64.90424912 C-13.33650535 64.97744629 -22.83576854 63.6282581 -31.42086792 55.58299255 C-37.33906685 48.46087736 -40.62994082 39.87442098 -40.45602417 30.62205505 C-39.6191905 21.7578169 -35.82568029 13.7311829 -29.35836792 7.59861755 C-20.19142569 0.28667542 -11.26646608 -0.04906341 0 0 Z " fill="#f8f8f8ff" transform="translate(82.24508666992188,351.61231994628906)"/>
<path d="M0 0 C1.55895595 -0.00417581 3.11790886 -0.00965469 4.67685616 -0.01631981 C8.94933096 -0.0307608 13.22161263 -0.02653392 17.49409795 -0.019153 C22.10634368 -0.01442028 26.71854769 -0.02693212 31.33078003 -0.03717041 C40.36220625 -0.05436186 49.39356291 -0.05519768 58.42500125 -0.04995751 C65.76645622 -0.04591512 73.10789064 -0.04736018 80.44934464 -0.05270576 C81.49446004 -0.05345419 82.53957544 -0.05420261 83.616361 -0.05497371 C85.73955742 -0.0565052 87.86275384 -0.05804355 89.98595025 -0.05958868 C109.89467734 -0.07331504 129.80336514 -0.06787513 149.71209134 -0.05640347 C167.92107121 -0.04647155 186.12994947 -0.05941081 204.33891366 -0.08333766 C223.04093103 -0.10772702 241.74290106 -0.11733689 260.44493401 -0.11068493 C270.94267807 -0.10719228 281.44034399 -0.10942784 291.93807602 -0.12693596 C300.87482468 -0.1416559 309.81144017 -0.14229609 318.74818622 -0.12486505 C323.30641387 -0.11635088 327.8644036 -0.11421568 332.42261887 -0.1295166 C336.59876644 -0.14336128 340.7744722 -0.13860349 344.9505942 -0.11927737 C346.45792416 -0.11551636 347.96528948 -0.11844228 349.47258793 -0.12888902 C360.84633201 -0.20208618 370.3455952 1.14710201 378.93069458 9.19236755 C384.84889351 16.31448275 388.13976748 24.90093913 387.96585083 34.15330505 C387.12901716 43.01754321 383.33550695 51.0441772 376.86819458 57.17674255 C367.70125235 64.48868468 358.77629274 64.82442351 347.50982666 64.77536011 C345.95087071 64.77953592 344.3919178 64.78501479 342.8329705 64.79167992 C338.5604957 64.8061209 334.28821403 64.80189402 330.01572871 64.79451311 C325.40348298 64.78978039 320.79127897 64.80229223 316.17904663 64.81253052 C307.14762041 64.82972197 298.11626375 64.83055778 289.08482541 64.82531761 C281.74337044 64.82127523 274.40193602 64.82272029 267.06048203 64.82806587 C265.49280892 64.82918851 265.49280892 64.82918851 263.89346566 64.83033382 C261.77026924 64.83186531 259.64707282 64.83340365 257.52387641 64.83494879 C237.61514932 64.84867515 217.70646152 64.84323524 197.79773532 64.83176357 C179.58875545 64.82183166 161.37987719 64.83477092 143.170913 64.85869776 C124.46889563 64.88308713 105.7669256 64.89269699 87.06489265 64.88604504 C76.56714859 64.88255238 66.06948268 64.88478795 55.57175064 64.90229607 C46.63500198 64.917016 37.69838649 64.9176562 28.76164044 64.90022516 C24.20341279 64.89171099 19.64542306 64.88957578 15.08720779 64.90487671 C10.91106022 64.91872139 6.73535446 64.91396359 2.55923246 64.89463747 C1.0519025 64.89087646 -0.45546282 64.89380239 -1.96276127 64.90424912 C-13.33650535 64.97744629 -22.83576854 63.6282581 -31.42086792 55.58299255 C-37.33906685 48.46087736 -40.62994082 39.87442098 -40.45602417 30.62205505 C-39.6191905 21.7578169 -35.82568029 13.7311829 -29.35836792 7.59861755 C-20.19142569 0.28667542 -11.26646608 -0.04906341 0 0 Z " fill="#ffffffff" transform="translate(82.24508666992188,223.61231994628906)"/>
<path d="M0 0 C1.55895595 -0.00417581 3.11790886 -0.00965469 4.67685616 -0.01631981 C8.94933096 -0.0307608 13.22161263 -0.02653392 17.49409795 -0.019153 C22.10634368 -0.01442028 26.71854769 -0.02693212 31.33078003 -0.03717041 C40.36220625 -0.05436186 49.39356291 -0.05519768 58.42500125 -0.04995751 C65.76645622 -0.04591512 73.10789064 -0.04736018 80.44934464 -0.05270576 C81.49446004 -0.05345419 82.53957544 -0.05420261 83.616361 -0.05497371 C85.73955742 -0.0565052 87.86275384 -0.05804355 89.98595025 -0.05958868 C109.89467734 -0.07331504 129.80336514 -0.06787513 149.71209134 -0.05640347 C167.92107121 -0.04647155 186.12994947 -0.05941081 204.33891366 -0.08333766 C223.04093103 -0.10772702 241.74290106 -0.11733689 260.44493401 -0.11068493 C270.94267807 -0.10719228 281.44034399 -0.10942784 291.93807602 -0.12693596 C300.87482468 -0.1416559 309.81144017 -0.14229609 318.74818622 -0.12486505 C323.30641387 -0.11635088 327.8644036 -0.11421568 332.42261887 -0.1295166 C336.59876644 -0.14336128 340.7744722 -0.13860349 344.9505942 -0.11927737 C346.45792416 -0.11551636 347.96528948 -0.11844228 349.47258793 -0.12888902 C360.84633201 -0.20208618 370.3455952 1.14710201 378.93069458 9.19236755 C384.84889351 16.31448275 388.13976748 24.90093913 387.96585083 34.15330505 C387.12901716 43.01754321 383.33550695 51.0441772 376.86819458 57.17674255 C367.70125235 64.48868468 358.77629274 64.82442351 347.50982666 64.77536011 C345.95087071 64.77953592 344.3919178 64.78501479 342.8329705 64.79167992 C338.5604957 64.8061209 334.28821403 64.80189402 330.01572871 64.79451311 C325.40348298 64.78978039 320.79127897 64.80229223 316.17904663 64.81253052 C307.14762041 64.82972197 298.11626375 64.83055778 289.08482541 64.82531761 C281.74337044 64.82127523 274.40193602 64.82272029 267.06048203 64.82806587 C265.49280892 64.82918851 265.49280892 64.82918851 263.89346566 64.83033382 C261.77026924 64.83186531 259.64707282 64.83340365 257.52387641 64.83494879 C237.61514932 64.84867515 217.70646152 64.84323524 197.79773532 64.83176357 C179.58875545 64.82183166 161.37987719 64.83477092 143.170913 64.85869776 C124.46889563 64.88308713 105.7669256 64.89269699 87.06489265 64.88604504 C76.56714859 64.88255238 66.06948268 64.88478795 55.57175064 64.90229607 C46.63500198 64.917016 37.69838649 64.9176562 28.76164044 64.90022516 C24.20341279 64.89171099 19.64542306 64.88957578 15.08720779 64.90487671 C10.91106022 64.91872139 6.73535446 64.91396359 2.55923246 64.89463747 C1.0519025 64.89087646 -0.45546282 64.89380239 -1.96276127 64.90424912 C-13.33650535 64.97744629 -22.83576854 63.6282581 -31.42086792 55.58299255 C-37.33906685 48.46087736 -40.62994082 39.87442098 -40.45602417 30.62205505 C-39.6191905 21.7578169 -35.82568029 13.7311829 -29.35836792 7.59861755 C-20.19142569 0.28667542 -11.26646608 -0.04906341 0 0 Z " fill="#ffffffff" transform="translate(82.24508666992188,95.61231994628906)"/>
</svg>
